<?xml version="1.0" encoding="utf-8"?>
<!-- Generator: Adobe Illustrator 24.0.1, SVG Export Plug-In . SVG Version: 6.00 Build 0)  -->
<svg version="1.1" xmlns="http://www.w3.org/2000/svg" xmlns:xlink="http://www.w3.org/1999/xlink" x="0px" y="0px"
	 viewBox="0 0 1259.5 1490.4" style="enable-background:new 0 0 1259.5 1490.4;" xml:space="preserve">
<style type="text/css">
	.st0{display:none;fill:none;stroke:#E5E5E5;stroke-width:15;stroke-miterlimit:10;}
	.st1{fill:none;stroke:#E5E5E5;stroke-width:15;stroke-miterlimit:10;}
	.st2{display:none;}
</style>
<g id="Layer_1">
	<title></title>
	<g id="Layer_2_1_">
		<g id="Content">
			<path class="st0" d="M464.1,234.9v1059c0,104.4,84.6,189,189,189h553.1"/>
			<path class="st1" d="M0,7.5h276.1c103.8,0,188,84.2,188,188v39.4"/>
			<circle class="st0" cx="859.1" cy="700.3" r="392.9"/>
		</g>
		<g id="UTK1hX.tif">
			
				<image style="overflow:visible;" width="1113" height="63" id="Layer_1_1_" xlink:href="5532DBC9A8974F31.png"  transform="matrix(3.336194e-03 0.4406 -0.24 1.817409e-03 471.8809 234.5936)">
			</image>
		</g>
	</g>
	<g id="P4s27v.tif">
		
			<image style="overflow:visible;" width="339" height="452" id="Layer_1_2_" xlink:href="5532DBC9A8974F33.png"  transform="matrix(1 0 0 1 456.7613 652.2273)">
		</image>
	</g>
	<g id="hu0xax.tif">
		
			<image style="overflow:visible;" width="465" height="576" id="Layer_1_3_" xlink:href="5532DBC9A8974F36.png"  transform="matrix(1 0 0 1 791.3184 534.1722)">
		</image>
	</g>
	<g id="yGhxXA.tif">
		
			<image style="overflow:visible;" width="640" height="228" id="Layer_1_4_" xlink:href="5532DBC9A8974F37.png"  transform="matrix(1 0 0 1 577.2313 306.1722)">
		</image>
	</g>
	<g id="dcRO9n.tif" class="st2">
		
			<image style="display:inline;overflow:visible;" width="121" height="292" id="Layer_1_5_" xlink:href="5532DBC9A8974F32.png"  transform="matrix(1 0 0 1 456.7613 420.1722)">
		</image>
	</g>
	<g id="QEmAhD.tif">
		
			<image style="overflow:visible;" width="121" height="292" id="Layer_1_6_" xlink:href="5532DBC9A8974F3D.png"  transform="matrix(1 0 0 1 456.7613 420.1722)">
		</image>
	</g>
	<g id="oXvc72.tif">
		
			<image style="overflow:visible;" width="3124" height="3237" id="Layer_1_7_" xlink:href="5532DBC9A8974F3E.png"  transform="matrix(0.24 0 0 0.2359 460.064 725.0543)">
		</image>
	</g>
</g>
<g id="Layer_2">
</g>
</svg>
