<?xml version="1.0" encoding="utf-8"?>
<!-- Generator: Adobe Illustrator 24.0.1, SVG Export Plug-In . SVG Version: 6.00 Build 0)  -->
<svg version="1.1" id="Layer_1" xmlns="http://www.w3.org/2000/svg" xmlns:xlink="http://www.w3.org/1999/xlink" x="0px" y="0px"
	 viewBox="0 0 1277 2128.4" style="enable-background:new 0 0 1277 2128.4;" xml:space="preserve">
<style type="text/css">
	.st0{fill:#E5E5E5;}
</style>
<g>
	<path class="st0" d="M451.7,160.2c-9.2-38.8-31.6-74-62.9-99.1c-32.3-25.8-71.3-39.5-112.7-39.5H0v-15h276.1
		c44.9,0,87.1,14.8,122.1,42.8c33.9,27.2,58.1,65.3,68.1,107.3L451.7,160.2z"/>
</g>
<g>
	<path class="st0" d="M471.3,1257.8h-15V199c0-14.2-1.7-28.3-4.9-41.9l14.6-3.5c3.5,14.8,5.3,30.1,5.3,45.4V1257.8z"/>
</g>
<g>
	<path class="st0" d="M457.4,1247.2h15c0,52,10.2,102.5,30.3,150c19.4,45.9,47.2,87.1,82.6,122.5s76.6,63.2,122.5,82.6
		c47.5,20.1,98,30.3,150,30.3c49.8,0,98.2-9.3,144-27.8l5.6,13.9c-47.5,19.2-97.9,28.9-149.6,28.9c-54,0-106.5-10.6-155.9-31.5
		c-47.7-20.2-90.5-49-127.3-85.8s-65.6-79.6-85.8-127.3C468,1353.7,457.4,1301.3,457.4,1247.2z"/>
</g>
<g>
	<path class="st0" d="M1125.5,1541c-35.3,33.7-75.9,60.3-120.4,79.1l-5.8-13.8c42.9-18.1,81.8-43.7,115.8-76.2
		c37.6-35.9,67.2-78.1,87.7-125.4c19.8-45.7,30.5-94.3,31.7-144.3s-7.1-99.1-24.7-145.7c-18.2-48.3-45.7-91.8-81.6-129.5l10.9-10.3
		c37.3,39.1,65.8,84.4,84.8,134.6c18.3,48.5,27,99.3,25.7,151.3s-12.4,102.4-33,149.9C1195.2,1459.9,1164.6,1503.7,1125.5,1541z"/>
</g>
<g>
	<path class="st0" d="M1140,976.8l-10.8,10.5c-36.2-37.3-78.8-66.4-126.3-86.4c-45.9-19.4-94.6-29.6-144.6-30.3
		c-50.1-0.7-99,8.1-145.4,26.2c-48.1,18.7-91.4,46.6-128.7,82.8c-35.7,34.7-63.9,75.1-83.9,120.3l-13.7-6.1
		c20.7-46.9,50.1-89,87.1-125c38.7-37.6,83.8-66.6,133.7-86.1c48.3-18.8,99-27.9,151.1-27.2c52,0.7,102.5,11.4,150.3,31.5
		C1058.2,907.8,1102.3,938,1140,976.8z"/>
</g>
<g>
	<path class="st0" d="M1236.3,2079.5H683.2c-108.4,0-196.5-88.1-196.5-196.4v-789.7h15v789.7c0,100.2,81.3,181.5,181.5,181.5h553.1
		V2079.5z"/>
</g>
</svg>
