<?xml version="1.0" encoding="utf-8"?>
<!-- Generator: Adobe Illustrator 24.0.1, SVG Export Plug-In . SVG Version: 6.00 Build 0)  -->
<svg version="1.1" xmlns="http://www.w3.org/2000/svg" xmlns:xlink="http://www.w3.org/1999/xlink" x="0px" y="0px"
	 viewBox="0 0 1259.5 1490.4" style="enable-background:new 0 0 1259.5 1490.4;" xml:space="preserve">
<style type="text/css">
	.st0{fill:none;stroke:#E5E5E5;stroke-width:15;stroke-miterlimit:10;}
</style>
<g id="Layer_1">
	<title></title>
	<g id="Layer_2_1_">
		<g id="Content">
			<path class="st0" d="M464.1,739.2v554.8c0,104.4,84.6,189,189,189h553.1"/>
			<path class="st0" d="M464.1,713.4v25.8"/>
			<path class="st0" d="M464.1,681.7v31.7"/>
			<path class="st0" d="M464.1,234.9v446.8"/>
			<path class="st0" d="M464.1,195.5v39.4"/>
			<path class="st0" d="M458.5,149.9c3.6,14.6,5.6,29.9,5.6,45.6"/>
			<path class="st0" d="M0,7.5h276.1c88.1,0,162.1,60.6,182.4,142.4"/>
		</g>
	</g>
	<path class="st0" d="M1251.9,708.5c-4.3,213.2-178.5,384.8-392.8,384.8c-217,0-392.9-175.9-392.9-392.9"/>
	<path class="st0" d="M466.2,700.3c0-217,175.9-392.9,392.9-392.9S1252,483.4,1252,700.3c0,2.7,0,5.4-0.1,8.1"/>
</g>
<g id="Layer_2">
</g>
</svg>
